<?xml version="1.0" standalone="no"?>
<!DOCTYPE svg PUBLIC "-//W3C//DTD SVG 20010904//EN"
 "http://www.w3.org/TR/2001/REC-SVG-20010904/DTD/svg10.dtd">
<svg version="1.0" xmlns="http://www.w3.org/2000/svg"
 width="256.000000pt" height="256.000000pt" viewBox="0 0 256.000000 256.000000"
 preserveAspectRatio="xMidYMid meet">

<g transform="translate(0.000000,256.000000) scale(0.100000,-0.100000)"
fill="#ff0000" stroke="none">
<path d="M320 2480 l0 -80 -80 0 -80 0 0 -80 0 -80 -80 0 -80 0 0 -640 0 -640
160 0 160 0 0 -160 0 -160 160 0 160 0 0 -160 0 -160 160 0 160 0 0 -160 0
-160 320 0 320 0 0 160 0 160 160 0 160 0 0 160 0 160 160 0 160 0 0 160 0
160 160 0 160 0 0 640 0 640 -80 0 -80 0 0 80 0 80 -80 0 -80 0 0 80 0 80
-160 0 -160 0 0 -80 0 -80 -160 0 -160 0 0 -80 0 -80 -80 0 -80 0 0 -160 0
-160 -160 0 -160 0 0 160 0 160 -80 0 -80 0 0 80 0 80 -160 0 -160 0 0 80 0
80 -160 0 -160 0 0 -80z m1389 -674 c7 -8 37 -106 67 -218 30 -111 59 -218 63
-235 8 -28 4 -43 -30 -108 -45 -84 -44 -90 4 -168 16 -26 29 -58 29 -70 0 -30
-121 -480 -132 -491 -11 -11 -479 112 -502 132 -10 8 -35 44 -55 78 l-37 64
-86 0 -86 0 -179 180 c-99 99 -182 185 -184 191 -2 6 80 94 181 195 l185 184
85 0 85 0 37 65 c21 35 45 70 52 76 11 9 450 134 485 138 4 1 12 -5 18 -13z"/>
<path d="M1313 1552 l-172 -46 -133 -133 -133 -133 207 0 206 0 102 176 c56
97 100 177 98 179 -2 1 -80 -18 -175 -43z"/>
<path d="M1524 1348 c-54 -95 -99 -177 -99 -183 0 -14 197 -356 202 -351 6 6
93 335 93 352 0 16 -87 345 -93 350 -2 2 -48 -74 -103 -168z"/>
<path d="M995 959 c66 -66 128 -125 137 -130 21 -12 350 -100 355 -95 2 2 -40
80 -94 174 l-98 171 -210 1 -210 0 120 -121z"/>
</g>
</svg>
