<?xml version="1.0" standalone="no"?>
<!DOCTYPE svg PUBLIC "-//W3C//DTD SVG 20010904//EN"
 "http://www.w3.org/TR/2001/REC-SVG-20010904/DTD/svg10.dtd">
<svg version="1.0" xmlns="http://www.w3.org/2000/svg"
 width="256.000000pt" height="256.000000pt" viewBox="0 0 256.000000 256.000000"
 preserveAspectRatio="xMidYMid meet">

<g transform="translate(0.000000,256.000000) scale(0.100000,-0.100000)"
fill="#eb2560" stroke="none">
<path d="M2 1283 l3 -1278 1275 0 1275 0 3 1278 2 1277 -1280 0 -1280 0 2
-1277z m2228 357 c0 -33 2 -60 4 -60 2 0 23 7 46 15 60 21 65 20 78 -22 13
-42 11 -49 -22 -57 -14 -3 -37 -11 -51 -16 l-25 -10 35 -48 35 -49 -37 -26
-36 -26 -35 46 -36 47 -37 -44 c-37 -43 -37 -43 -64 -26 -39 26 -40 42 -5 86
l32 40 -29 10 c-74 27 -84 33 -78 47 3 8 8 26 11 39 7 28 17 29 74 9 23 -8 44
-15 46 -15 2 0 4 27 4 60 l0 60 45 0 45 0 0 -60z m-420 -40 l0 -90 -230 0
-230 0 0 -38 c0 -22 -3 -74 -7 -116 l-6 -78 74 7 c186 17 336 -51 410 -187 33
-61 34 -67 34 -173 0 -105 -2 -114 -33 -177 -40 -83 -119 -158 -200 -190 -48
-19 -75 -23 -177 -23 -111 0 -125 2 -182 29 -59 27 -169 126 -161 144 2 4 33
35 70 70 66 63 67 63 78 40 27 -51 84 -99 138 -114 68 -20 125 -12 184 25 54
34 80 84 86 162 7 97 -30 169 -112 212 -62 33 -212 30 -320 -5 l-79 -27 8 302
c4 166 9 305 12 310 2 4 148 7 324 7 l319 0 0 -90z m-994 -290 c78 -38 154
-119 186 -198 19 -48 23 -76 23 -172 0 -109 -2 -119 -32 -182 -42 -89 -101
-151 -182 -190 -58 -29 -75 -33 -151 -33 -76 0 -92 3 -152 33 -37 18 -76 45
-88 59 l-20 26 0 -242 0 -241 -100 0 -100 0 2 578 3 577 90 0 90 0 3 -53 3
-53 20 25 c26 33 100 76 158 93 73 20 173 10 247 -27z"/>
<path d="M545 1176 c-81 -30 -155 -143 -155 -236 0 -85 59 -184 133 -221 62
-32 162 -24 214 17 21 16 51 55 66 85 26 49 28 61 25 135 -4 65 -9 90 -31 127
-50 84 -162 126 -252 93z"/>
</g>
</svg>
